<svg xmlns:xlink="http://www.w3.org/1999/xlink" xmlns="http://www.w3.org/2000/svg" viewBox="0 0 64 64" version="1.0"><defs><linearGradient id="l" y2="44.5" xlink:href="#c" gradientUnits="userSpaceOnUse" x2="17" gradientTransform="matrix(-1 0 0 -1.7143 38 111.29)" y1="34" x1="8"/><linearGradient id="d"><stop offset="0" stop-color="#729fcf"/><stop offset="1" stop-color="#204a87"/></linearGradient><linearGradient id="a"><stop offset="0" stop-color="#c91414"/><stop offset="1" stop-color="#ef2929"/></linearGradient><linearGradient id="b"><stop offset="0" stop-color="#f57900"/><stop offset="1" stop-color="#fcaf3e"/></linearGradient><linearGradient id="p" y2="34" xlink:href="#a" gradientUnits="userSpaceOnUse" x2="8" gradientTransform="matrix(1 0 0 .66667 39 15.333)" y1="44.5" x1="17"/><linearGradient id="o" y2="37" xlink:href="#a" gradientUnits="userSpaceOnUse" x2="11" gradientTransform="matrix(-1 0 0 -.66667 64 75.667)" y1="34" x1="8"/><linearGradient id="n" y2="44.5" xlink:href="#b" gradientUnits="userSpaceOnUse" x2="17" gradientTransform="matrix(-1 0 0 -1.2381 51 95.095)" y1="34" x1="6"/><linearGradient id="m" y2="34" xlink:href="#b" gradientUnits="userSpaceOnUse" x2="8" gradientTransform="matrix(1 0 0 1.2381 26 -20.095)" y1="44.5" x1="19"/><linearGradient id="c"><stop offset="0" stop-color="#4e9a06"/><stop offset="1" stop-color="#8ae234"/></linearGradient><linearGradient id="k" y2="34" xlink:href="#c" gradientUnits="userSpaceOnUse" x2="8" gradientTransform="matrix(1 0 0 1.5238 13 -42.81)" y1="44.5" x1="17"/><linearGradient id="j" y2="34" xlink:href="#d" gradientUnits="userSpaceOnUse" x2="8" gradientTransform="rotate(180 12.5 43.5)" y1="44" x1="17"/><linearGradient id="i" y2="44" xlink:href="#d" gradientUnits="userSpaceOnUse" x2="17" gradientTransform="translate(0 -4)" y1="34" x1="8"/><linearGradient id="h" y2="11" xlink:href="#b" gradientUnits="userSpaceOnUse" x2="51" gradientTransform="translate(-17 11)" y1="42" x1="60"/><linearGradient id="g" y2="57" gradientUnits="userSpaceOnUse" x2="17" gradientTransform="translate(0 -4)" y1="34" x1="8"><stop offset="0" stop-color="#729fcf"/><stop offset="1" stop-color="#204a87"/></linearGradient><linearGradient id="f" y2="48.269" xlink:href="#a" gradientUnits="userSpaceOnUse" x2="50.657" gradientTransform="translate(0 -4)" y1="57" x1="56"/><linearGradient id="e" y2="13" xlink:href="#c" gradientUnits="userSpaceOnUse" x2="21" gradientTransform="translate(0 -4)" y1="57" x1="30"/></defs><path d="M6 29.867S6 28 7.857 28h9.286C19 28 19 29.867 19 29.867V53H6V29.867z" fill="#204a87"/><path d="M45 38.067s0-1.867 1.857-1.867h9.286C58 36.2 58 38.067 58 38.067V53H45V38.067z" fill="#c00"/><path d="M19 8.867S19 7 20.857 7h9.286C32 7 32 8.867 32 8.867V53H19V8.867z" fill="#4e9a06"/><path d="M21 9h9v44h-9V9z" fill="url(#e)"/><path d="M32 21.867S32 20 33.857 20h9.286C45 20 45 21.867 45 21.867V53H32V21.867z" fill="#f57900"/><path d="M34 22h9v31h-9V22z" fill="#fcaf3e"/><path d="M47 38h9v15h-9V38z" fill="url(#f)"/><path d="M8 30h9v23H8V30z" fill="url(#g)"/><path d="M3 53h58c.554 0 1 .446 1 1s-.446 1-1 1H3c-.554 0-1-.446-1-1s.446-1 1-1z" fill="#555753"/><path d="M34 22h9v31h-9V22z" fill="url(#h)"/><path d="M8 30v3.312c.189-.05.383-.083.594-.062.825.118 1.467.717 1.968 1.344.741 1.028 1.539 2.01 2.438 2.906 1.165 1.186 2.505 2.257 4 3V30H8z" fill="url(#i)"/><path d="M17 53v-3.312c-.189.05-.383.083-.594.062-.825-.118-1.467-.717-1.968-1.344-.741-1.028-1.539-2.01-2.438-2.906-1.165-1.186-2.505-2.257-4-3V53h9z" fill="url(#j)"/><path d="M21 9v5.048c.189-.077.383-.128.594-.096.825.181 1.467 1.093 1.968 2.048.741 1.567 1.539 3.063 2.438 4.429 1.165 1.808 2.505 3.438 4 4.571V9h-9z" fill="url(#k)"/><path d="M30 53v-5.679c-.189.087-.383.144-.594.108-.825-.203-1.467-1.23-1.968-2.304-.741-1.763-1.539-3.446-2.438-4.982-1.165-2.034-2.505-3.869-4-5.143v18h9z" fill="url(#l)"/><path d="M34 22v4.101a1.33 1.33 0 01.594-.077c.825.146 1.467.888 1.968 1.664.741 1.273 1.539 2.488 2.438 3.598 1.165 1.469 2.505 2.794 4 3.714V22h-9z" fill="url(#m)"/><path d="M43 53v-4.101a1.33 1.33 0 01-.594.077c-.825-.146-1.467-.888-1.968-1.664-.741-1.273-1.539-2.488-2.438-3.598-1.165-1.469-2.505-2.794-4-3.714v13h9z" fill="url(#n)"/><path d="M56 53v-2.208a2.4 2.4 0 01-.594.041c-.825-.079-1.467-.478-1.968-.895A19.363 19.363 0 0051 48a16.269 16.269 0 00-4-2v7h9z" fill="url(#o)"/><path d="M47 38v2.208a2.4 2.4 0 01.594-.041c.825.079 1.467.478 1.968.895.741.686 1.539 1.34 2.438 1.938a16.269 16.269 0 004 2v-7h-9z" fill="url(#p)"/></svg>